<?xml version="1.0" encoding="UTF-8"?>
<svg id="Layer_2" data-name="Layer 2" xmlns="http://www.w3.org/2000/svg" viewBox="0 0 518.85 195.15">
  <defs>
    <style>
      @font-face {
          font-family: OriginTechDemoRegular, 'Origin Tech Demo';
          src: url('https://tuesfest.bg/fonts/origintech.ttf');
      }
      .cls-1 {
        fill: #a47bf5;
      }

      .cls-2, .cls-3 {
        fill: #4ddef9;
      }

      .cls-3 {
        font-family: OriginTechDemoRegular, 'Origin Tech Demo';
        font-size: 43.49px;
      }
    </style>
  </defs>
  <g id="Layer_1-2" data-name="Layer 1">
    <g id="_1" data-name="1">
      <g>
        <path class="cls-1" d="M14.74,167.83h12.51v4.47H14.74v22.79H0v-65.68H7.82v24.8h6.93v13.63Zm39.54-16.98c0,11.82-9.62,21.45-21.45,21.45h-2.9v-7.15h-12.51v-7.6h15.41c3.7,0,6.7-3.01,6.7-6.7s-3.01-6.7-6.7-6.7H14.74v7.37h-4.24v-22.12h22.34c11.82,0,21.45,9.62,21.45,21.45Z"/>
        <path class="cls-1" d="M158.93,158.73h7.37v36.36h-14.74v-50.94h-21.22v-14.74h12.45v7.37h16.14v21.95Zm28.59-29.32l-5.85,14.74h-15.37v11.89h-4.69v-21.95h-16.14v-4.69h42.05Z"/>
        <path class="cls-1" d="M209.18,144.16v10.39h33.97v.2l-5.76,14.54h-22.05v-6.86h-13.87v-8.56h-7.02v-24.46h48.71v14.75h-33.97Zm0,36.19h33.97v14.74h-48.71v-38.54h4.34v8.56h13.87v4.18h-3.47v11.06Z"/>
        <path class="cls-1" d="M310.46,195.07h0s0,0,0,0l-20.06-17.56v-8.09l-35.68-31.09v-11.59l41,35.84v-27.09l14.74-6.39v65.97Zm-55.74-53.18l33,28.76v4.53l-18.26-15.96v35.9h-14.74v-53.22Z"/>
        <path class="cls-1" d="M346.91,158.73h7.37v36.36h-14.74v-50.94h-21.22v-14.74h12.45v7.37h16.14v21.95Zm28.59-29.32l-5.84,14.74h-15.37v11.89h-4.69v-21.95h-16.14v-4.69h42.05Z"/>
        <path class="cls-1" d="M396.95,129.52v29.49h-4.02v-20.1h-10.72v-9.38h14.74Zm-6.7,32.17h6.7v33.44l-14.74-6.39v-47.16h8.04v20.11Z"/>
        <path class="cls-1" d="M464.44,189.29l-13.52,5.86-2.13-4.64h0s-26.58,0-26.58,0l-2.13,4.64h-16.23l11.03-23.98h16.23l-4.87,10.63h34.77l3.44,7.49Zm-32.11-20.8h-16.23l19.39-42.17,24.27,52.8h-29.35l1.54-3.35h10.05l-6.51-14.15-3.16,6.88Z"/>
        <path class="cls-1" d="M499.42,186.37h-27.48v-56.96s14.75,6.4,14.75,6.4v44.54h12.73v6.03Zm19.43-6.03v14.74h-46.91s0,0,0,0h0v-6.03h30.16v-8.71h16.75Z"/>
      </g>
      <g>
        <path class="cls-1" d="M47.17,42.65l4.7,4.08c-4.59,4.7-10.98,7.62-18.04,7.62-13.92,0-25.25-11.33-25.25-25.25V.01l.16,.07,11.96,5.18V29.02c0,7.01,5.41,12.69,12.22,13.16v5.82h1.1c4.91,0,9.64-1.94,13.14-5.35ZM59.08,0V29.03c0,6.1-2.18,11.68-5.76,16.05l-6.31-5.48-.73,.8c-2.89,3.17-6.91,5.09-11.16,5.37v-3.62c6.64-.65,11.83-6.24,11.83-13.05V0h12.13Z"/>
        <path class="cls-1" d="M150.54,47.01h-22.59V.17s12.13,5.26,12.13,5.26V42.05h10.47v4.96Zm15.98-4.96v12.13h-38.57s0,0,0,0h0v-4.96h24.8v-7.16h13.78Z"/>
        <path class="cls-1" d="M176.16,32.74l-5.02,1.2c-1.62-6.21-.99-12.72,1.84-18.56,6.5-13.4,22.68-19.01,36.08-12.52,6.5,3.15,11.16,8.59,13.5,14.88l-3.3,.79c-.85-2.31-2.06-4.47-3.58-6.42-1.73-2.22-3.82-4.1-6.22-5.59l-.94-.58-4.85,7.8c-2.06-.98-4.24-1.45-6.39-1.45-5.53,0-10.84,3.09-13.41,8.39-1.73,3.58-1.97,7.61-.67,11.37,.99,2.85,2.78,5.27,5.15,7.04l-3.61,5.81c-1.79-1.24-3.38-2.74-4.72-4.47-1.58-2.02-2.77-4.27-3.55-6.71l-.31-.97Zm45.41,6.21c-3.15,6.49-8.63,11.36-15.45,13.73-2.9,1.01-5.89,1.5-8.87,1.5-4.03,0-8.03-.91-11.76-2.72-6.48-3.14-11.35-8.61-13.71-15.41l2.93-.7c.85,2.31,2.06,4.47,3.58,6.42,1.73,2.22,3.82,4.1,6.22,5.59l.93,.58,4.79-7.69c.18,.1,.36,.21,.55,.3,3.58,1.73,7.62,1.97,11.37,.67,3.76-1.3,6.78-3.99,8.51-7.56,1.73-3.58,1.97-7.61,.67-11.37-1.07-3.08-3.08-5.66-5.74-7.44l3.63-5.84c1.79,1.24,3.38,2.74,4.72,4.47,1.57,2.02,2.77,4.27,3.55,6.71l.31,.97,5.44-1.3c1.73,6.14,1.32,12.92-1.68,19.1Z"/>
        <path class="cls-1" d="M235.08,27.18v-1.1h-5.36c.58-14.38,12.46-25.9,26.98-25.9,7.11,0,14.07,2.88,19.09,7.91l-8.57,8.57c-2.77-2.77-6.6-4.36-10.52-4.36-8.21,0-14.88,6.68-14.88,14.88,0,4.41,1.94,8.36,4.99,11.09l-5.34,4.32c-4.07-4.11-6.39-9.67-6.39-15.41h0Zm40.88,18.93c-5.04,5.13-12.06,8.08-19.26,8.08-14.52,0-26.4-11.52-26.98-25.9h3.18c.29,6.26,3.08,12.26,7.75,16.58l.7,.65,7.25-5.86c2.33,1.52,5.11,2.41,8.09,2.41,3.97,0,7.84-1.62,10.62-4.45l8.65,8.5Z"/>
        <path class="cls-1" d="M295.64,23.75l-12.58-.06V.22l12.12,5.25v12.75L313.24,.18h17.14l-26.63,26.63,13.55,13.55h-5.05l-16.61-16.6Zm35.12,30.06h-17.15l-18.43-18.43v18.79h-12.12V25.9l11.67,.05,16.61,16.6h8.17l11.26,11.25Z"/>
      </g>
      <g>
        <path class="cls-1" d="M67.57,170.11c.95,2.95,2.4,5.7,4.31,8.14,1.63,2.09,3.56,3.92,5.73,5.43l4.39-7.05,5.87-9.71,.94-2.54c-2.06-1.32-3.44-3.62-3.44-6.26,0-4.11,3.33-7.44,7.44-7.44,1.53,0,2.94,.46,4.12,1.25l3.66-6.05,.05-.02,5.88-9.44,1.11,.69c2.9,1.81,5.44,4.09,7.55,6.79,1.85,2.37,3.31,4.99,4.35,7.8l.07-.02s0,.01,0,.02l4.01-.96c-1.28-3.43-3.15-6.63-5.51-9.49l.38-115.93c0-6.1-2.18-11.68-5.76-16.05l-6.31,5.48-.73-.8c-2.89-3.17-6.91-5.09-11.16-5.37v3.62c6.64,.65,11.83,6.24,11.83,13.05l-.38,106.88c-.32-.14-.64-.23-.97-.36-.56-.22-1.11-.44-1.67-.63-.49-.17-.98-.32-1.48-.46-.6-.17-1.2-.33-1.8-.46-.48-.11-.96-.2-1.44-.29-.62-.11-1.23-.2-1.85-.28-.48-.06-.95-.11-1.43-.14-.62-.05-1.23-.07-1.85-.08-.48,0-.96-.01-1.44,0-.61,.02-1.22,.06-1.83,.11-.48,.04-.95,.08-1.42,.14-.61,.08-1.21,.18-1.82,.29-.46,.08-.92,.16-1.38,.27-.61,.14-1.22,.31-1.82,.49-.43,.12-.86,.24-1.28,.38-.64,.21-1.26,.46-1.88,.71-.3,.12-.61,.21-.9,.34l.38-106.8c0-7.01,5.41-12.69,12.22-13.16V6.35h1.1c4.91,0,9.64,1.94,13.14,5.35l4.7-4.08c-4.59-4.7-10.98-7.62-18.04-7.62-13.92,0-25.25,11.33-25.25,25.25l-.21,111.83-.02,4.01c-.05,.06-.09,.13-.15,.19-.66,.8-1.29,1.64-1.88,2.51-.17,.25-.35,.5-.52,.76-.5,.79-.96,1.62-1.4,2.46-.15,.29-.34,.55-.48,.85-.03,.07-.04,.13-.07,.2-3.35,7.03-4.09,14.86-2.14,22.33l6.09-1.46,.38,1.18Z"/>
        <path class="cls-1" d="M124.36,153.28l-6.6,1.58-.38-1.18c-.95-2.96-2.4-5.7-4.31-8.14-1.63-2.09-3.56-3.92-5.73-5.43l-4.41,7.09-4.02,6.65c.85,1.21,1.36,2.67,1.36,4.26,0,2.65-1.4,4.96-3.49,6.28l3.49,9.27h-13.34l-2.65,4.38-5.81,9.34-1.13-.71c-2.91-1.81-5.44-4.09-7.55-6.79-1.85-2.37-3.31-4.99-4.35-7.8l-3.56,.85c2.88,8.25,8.79,14.89,16.65,18.71,4.53,2.2,9.39,3.3,14.28,3.3,3.62,0,7.25-.61,10.77-1.83,8.27-2.87,14.94-8.79,18.76-16.67,3.64-7.51,4.14-15.73,2.04-23.19Z"/>
        <g>
          <path class="cls-2" d="M101.51,24.91l-6.4,9.31h-.67l-4.94-6.94h-2.91l-1.63-2.37h4.19l4.08,5.94,4.08-5.94h4.19Zm-7.39,9.94h.82v5.41h-3.45v-5.86l-4.46-6.5h2.16l4.94,6.94Z"/>
          <path class="cls-2" d="M87.21,61.66l-1.43,.34c-.46-1.77-.28-3.62,.52-5.28,1.85-3.82,6.46-5.41,10.28-3.57,1.85,.9,3.18,2.45,3.85,4.24l-.94,.22c-.24-.66-.59-1.27-1.02-1.83-.49-.63-1.09-1.17-1.77-1.59l-.26-.17-1.38,2.22c-.59-.28-1.21-.41-1.82-.41-1.57,0-3.09,.88-3.82,2.39-.49,1.02-.56,2.17-.19,3.24,.28,.81,.79,1.5,1.47,2l-1.03,1.65c-.51-.35-.96-.78-1.34-1.27-.45-.57-.79-1.22-1.01-1.91l-.09-.28Zm12.93,1.77c-.9,1.85-2.46,3.24-4.4,3.91-.83,.29-1.68,.43-2.53,.43-1.15,0-2.29-.26-3.35-.78-1.84-.89-3.23-2.45-3.91-4.39l.84-.2c.24,.66,.58,1.27,1.02,1.83,.49,.63,1.09,1.17,1.77,1.59l.27,.17,1.36-2.19c.05,.03,.1,.06,.16,.09,1.02,.49,2.17,.56,3.24,.19,1.07-.37,1.93-1.13,2.42-2.15,.49-1.02,.56-2.17,.19-3.24-.3-.88-.88-1.61-1.64-2.12l1.04-1.66c.51,.35,.96,.78,1.35,1.27,.45,.57,.79,1.22,1.01,1.91l.09,.28,1.55-.37c.49,1.75,.38,3.68-.48,5.44Z"/>
          <path class="cls-2" d="M97.04,91.98l1.34,1.16c-1.31,1.34-3.13,2.17-5.14,2.17-3.96,0-7.19-3.23-7.19-7.19v-8.28l.05,.02,3.41,1.48v6.77c0,1.99,1.54,3.61,3.48,3.75v1.66h.31c1.4,0,2.75-.55,3.74-1.52Zm3.39-12.15v8.27c0,1.74-.62,3.33-1.64,4.57l-1.8-1.56-.21,.23c-.82,.9-1.97,1.45-3.18,1.53v-1.03c1.89-.18,3.37-1.78,3.37-3.72v-8.29h3.45Z"/>
          <path class="cls-2" d="M100.88,122.8h-4.13l-3.5-5.34h-2.99v3.83l-3.45,1.5v-15.37h1.83v5.81h1.62v2.17h5.57l5.05,7.4Zm-10.62-11.93v1.73h-.99v-5.18h5.23c2.77,0,5.02,2.25,5.02,5.02,0,1.69-.85,3.19-2.14,4.1l-1.23-1.77h-5.27v-.76h3.61c.87,0,1.57-.7,1.57-1.57s-.7-1.57-1.57-1.57h-4.24Z"/>
        </g>
      </g>
      <text class="cls-3" transform="translate(127.3 106.01)"><tspan x="0" y="0">TUESFest 2023</tspan></text>
    </g>
  </g>
</svg>