<svg xmlns="http://www.w3.org/2000/svg" xmlns:xlink="http://www.w3.org/1999/xlink" version="1.1" id="Layer_1" x="0px" y="0px" viewBox="0 0 274.5 150.9" style="enable-background:new 0 0 274.5 150.9;" xml:space="preserve">
<style type="text/css">
	.st0{fill:#FFFFFF;}
</style>
<path class="st0" d="M54.6,104.6h-4.5v-28c0-6.8-2.1-12.6-6.4-17.6c-4.3-4.9-9.8-7.4-16.4-7.4c-5.9,0-11.2,2.4-15.7,7.2  C7,63.7,4.7,69.6,4.7,76.6c0,7,2.3,12.9,6.9,17.7c4.6,4.8,9.8,7.2,15.7,7.2c3.5,0,6.7-0.7,9.5-2c2.8-1.3,5.4-3.4,8-6.1v5.3  c-2.5,2.1-5.1,3.8-7.7,5.1c-2.6,1.3-5.9,2-9.8,2c-7.6,0-14.1-2.8-19.4-8.3C2.6,92,0,85,0,76.6c0-8.4,2.6-15.3,7.9-20.9  c5.2-5.6,11.7-8.3,19.5-8.3c7.6,0,14.1,2.8,19.4,8.3c5.3,5.5,7.9,12.5,7.9,20.9V104.6z"/>
<path class="st0" d="M110.1,90.2c0,4.8-1.7,8.4-5,10.8c-3.4,2.4-8.2,3.6-14.6,3.6H66.3v-4.3h25.1c4.7,0,8.1-0.9,10.3-2.5  c2.2-1.7,3.3-4,3.3-6.9c0-5.1-3.4-8.8-10.1-11.1c-6.2-1.7-12.4-3.3-18.6-5c-6.8-2.6-10.2-6.8-10.2-12.6c0-3.9,1.3-7.1,3.8-9.7  c2.5-2.6,6-3.9,10.5-3.9h25.2v4.3H81c-2.6,0-4.9,0.8-6.8,2.4c-1.9,1.6-2.9,3.9-2.9,6.8c0,4.5,3.2,7.6,9.6,9.5  c6.4,1.8,12.8,3.5,19,5.2C106.7,79.5,110.1,84,110.1,90.2"/>
<path class="st0" d="M146,104.6h-8c-5.3,0-9.3-1.4-12.1-4.2c-2.8-2.8-4.2-6.7-4.2-11.9V33.2h4.5v15.4H146v4.3h-19.9V89  c0,3.5,1,6.2,3,8.3c2,2,4.6,3.1,7.9,3.1h9V104.6z"/>
<path class="st0" d="M210.7,77.8c0,7.6-2.8,14.1-8.3,19.7c-5.6,5.6-12.3,8.3-20.2,8.3c-8.7,0-15.8-2.8-21.5-8.4  c-5.7-5.6-8.5-12.5-8.5-20.7c0-8.1,2.7-15,8.2-20.7c5.4-5.7,12.4-8.6,20.9-8.6c5.2,0,10,1.2,14.4,3.7c4.4,2.5,7.9,5.8,10.5,10  l-40.1,27.2l-2.8-3.8l36.1-24.3c-4.5-5.7-10.5-8.5-18.1-8.5c-7,0-12.8,2.5-17.4,7.5c-4.6,5-6.9,10.9-6.9,17.8c0,6.8,2.3,12.6,7,17.4  c4.6,4.8,10.4,7.2,17.4,7.2c6.7,0,12.5-2.3,17.3-7c4.8-4.7,7.3-10.3,7.3-16.7H210.7z"/>
<path class="st0" d="M272.3,104.6h-4.5v-28c0-6.8-2.1-12.6-6.4-17.6c-4.3-4.9-9.8-7.4-16.4-7.4c-5.9,0-11.2,2.4-15.7,7.2  c-4.6,4.8-6.9,10.7-6.9,17.7c0,7,2.3,12.9,6.9,17.7c4.6,4.8,9.8,7.2,15.7,7.2c3.5,0,6.7-0.7,9.5-2c2.8-1.3,5.4-3.4,8-6.1v5.3  c-2.5,2.1-5.1,3.8-7.7,5.1c-2.6,1.3-5.9,2-9.8,2c-7.6,0-14.1-2.8-19.4-8.3c-5.3-5.5-7.9-12.5-7.9-20.9c0-8.4,2.6-15.3,7.9-20.9  c5.2-5.6,11.7-8.3,19.4-8.3c7.6,0,14.1,2.8,19.4,8.3c5.3,5.5,7.9,12.5,7.9,20.9V104.6z"/>
<path class="st0" d="M25.8,143.1c0,2.4-0.8,4.2-2.4,5.5c-1.6,1.3-3.8,1.9-6.7,1.9H6.2v-1.6h10.2c2.4,0,4.2-0.5,5.5-1.4  c1.3-0.9,1.9-2.3,1.9-4.1c0-2.7-1.5-4.7-4.6-5.9c-2.8-0.9-5.7-1.8-8.5-2.7c-3.1-1.4-4.6-3.7-4.6-6.8c0-2.1,0.7-3.7,2.1-4.8  c1.4-1.1,3.2-1.7,5.4-1.7h10.3v1.6h-9.6c-2.3,0-3.9,0.4-4.9,1.3c-1,0.9-1.5,2.1-1.5,3.8c0,2.5,1.5,4.3,4.6,5.4  c2.8,0.9,5.7,1.9,8.5,2.8C24.2,137.7,25.8,140,25.8,143.1"/>
<path class="st0" d="M66.8,135.9c0,4.1-1.4,7.7-4.3,10.6c-2.9,2.9-6.4,4.4-10.5,4.4c-4.1,0-7.6-1.5-10.5-4.4  c-2.8-2.9-4.3-6.5-4.3-10.6c0-4.1,1.4-7.7,4.3-10.6c2.8-2.9,6.3-4.4,10.5-4.4c4.1,0,7.6,1.5,10.5,4.4  C65.4,128.2,66.8,131.8,66.8,135.9 M65,135.9c0-3.7-1.3-6.8-3.8-9.5c-2.5-2.7-5.6-4-9.2-4c-3.7,0-6.7,1.3-9.2,4  c-2.5,2.6-3.7,5.8-3.7,9.5c0,3.7,1.2,6.9,3.7,9.5c2.5,2.6,5.5,3.9,9.2,3.9c3.7,0,6.8-1.3,9.3-4C63.8,142.7,65,139.6,65,135.9"/>
<path class="st0" d="M92.8,150.4h-6.1c-1.9,0-3.7-0.8-5.2-2.3c-1.5-1.5-2.3-3.6-2.3-6.3v-20.5h1.7v20.4c0,2.1,0.6,3.8,1.7,5.1  c1.1,1.3,2.7,2,4.6,2h5.5V150.4z"/>
<path class="st0" d="M123.6,140.9c0,3.1-0.9,5.5-2.7,7.3c-1.8,1.8-4.3,2.7-7.3,2.7c-3.1,0-5.5-0.9-7.3-2.7c-1.8-1.8-2.7-4.2-2.7-7.3  v-19.6h1.7v20.1c0,2.4,0.8,4.3,2.3,5.7c1.5,1.4,3.5,2.1,6,2.1c2.5,0,4.5-0.7,6-2.1c1.5-1.4,2.3-3.3,2.3-5.8v-20.1h1.7V140.9z"/>
<polygon class="st0" points="153,122.8 144.8,122.8 144.8,150.4 143,150.4 143,122.8 134.8,122.8 134.8,121.3 153,121.3 "/>
<rect x="165.1" y="121.3" class="st0" width="1.7" height="29.1"/>
<path class="st0" d="M209.8,135.9c0,4.1-1.4,7.7-4.3,10.6c-2.9,2.9-6.4,4.4-10.5,4.4c-4.1,0-7.6-1.5-10.5-4.4  c-2.8-2.9-4.3-6.5-4.3-10.6c0-4.1,1.4-7.7,4.3-10.6c2.8-2.9,6.3-4.4,10.5-4.4c4.1,0,7.6,1.5,10.5,4.4  C208.3,128.2,209.8,131.8,209.8,135.9 M208,135.9c0-3.7-1.3-6.8-3.8-9.5c-2.5-2.7-5.6-4-9.2-4c-3.6,0-6.7,1.3-9.2,4  c-2.5,2.6-3.7,5.8-3.7,9.5c0,3.7,1.2,6.9,3.7,9.5c2.5,2.6,5.5,3.9,9.2,3.9c3.7,0,6.8-1.3,9.3-4C206.7,142.7,208,139.6,208,135.9"/>
<path class="st0" d="M274.5,143.1c0,2.4-0.8,4.2-2.4,5.5c-1.6,1.3-3.8,1.9-6.7,1.9H255v-1.6h10.2c2.4,0,4.2-0.5,5.5-1.4  c1.3-0.9,2-2.3,2-4.1c0-2.7-1.5-4.7-4.6-5.9c-2.8-0.9-5.7-1.8-8.5-2.7c-3.1-1.4-4.6-3.7-4.6-6.8c0-2.1,0.7-3.7,2.1-4.8  c1.4-1.1,3.2-1.7,5.4-1.7h10.3v1.6h-9.6c-2.3,0-3.9,0.4-4.9,1.3c-1,0.9-1.5,2.1-1.5,3.8c0,2.5,1.5,4.3,4.6,5.4  c2.8,0.9,5.7,1.9,8.5,2.8C273,137.7,274.5,140,274.5,143.1"/>
<path class="st0" d="M242.6,150.5h-1.7v-20.1c0-2.5-0.8-4.4-2.3-5.8c-1.5-1.4-3.5-2.1-6-2.1c-2.5,0-4.5,0.7-6,2.1  c-1.5,1.4-2.3,3.3-2.3,5.7v20.1h-1.7v-19.6c0-3.1,0.9-5.6,2.7-7.3c1.8-1.8,4.2-2.7,7.3-2.7c3.1,0,5.5,0.9,7.3,2.7  c1.8,1.8,2.7,4.2,2.7,7.3V150.5z"/>
<g>
	<path class="st0" d="M209.8,19.4l0.2,0.2c0.1,0.1,0.7,0.8,1.5,1.7c0.6-2.1,1.2-4.8,1.2-7.9c0-4.7-0.9-13.5-2.9-13.5   c-2.1,0-3,8.8-3,13.5c0,3,0.6,5.8,1.2,7.9c0.7-0.9,1.4-1.6,1.5-1.7L209.8,19.4z"/>
	<path class="st0" d="M213.2,27.3c2.1,0.7,5.4,1.6,9.1,1.6c5.4,0,13.5-0.9,13.5-2.9c0-2.1-8.8-3-13.5-3c-3.5,0-6.7,0.8-8.8,1.5   c0.1,0.3,0.2,0.6,0.2,0.9C213.7,26.1,213.5,26.7,213.2,27.3z"/>
	<path class="st0" d="M208.5,29.1c-0.8,2.1-1.7,5.5-1.7,9.3c0,4.7,0.9,13.5,3,13.5c2,0,2.9-8,2.9-13.5c0-3.8-1-7.2-1.7-9.3   c-0.4,0.1-0.8,0.2-1.2,0.2C209.3,29.3,208.9,29.3,208.5,29.1z"/>
	<path class="st0" d="M206.1,24.5c-2.1-0.7-5.3-1.5-8.8-1.5c-4.7,0-13.5,0.9-13.5,3c0,2,8,2.9,13.5,2.9c3.7,0,6.9-0.9,9.1-1.6   c-0.3-0.5-0.5-1.2-0.5-1.8C205.9,25.2,205.9,24.9,206.1,24.5z"/>
	<path class="st0" d="M204.7,17.5c-2.9-2.9-6.8-5.9-8.4-5.9c-0.3,0-0.5,0.1-0.6,0.2c-1.2,1.2,3.4,6.7,5.7,9c1.6,1.6,3.3,2.7,4.8,3.5   c0.3-0.9,1-1.9,1.7-2.7C207,20.4,206,18.9,204.7,17.5z"/>
	<path class="st0" d="M211.1,29.1c0.8,1.5,2,3.5,3.8,5.3c2.9,2.9,6.8,5.9,8.4,5.9c0.3,0,0.5-0.1,0.6-0.2c1.2-1.2-3.4-6.7-5.7-9   c-1.7-1.7-3.6-2.9-5.1-3.7C212.7,28.2,212,28.8,211.1,29.1z"/>
	<path class="st0" d="M206.4,27.4c-1.5,0.8-3.3,2-5.1,3.7c-2.3,2.3-6.9,7.8-5.7,9c0.1,0.1,0.3,0.2,0.6,0.2c1.6,0,5.5-3,8.4-5.9   c1.8-1.8,3-3.8,3.8-5.3C207.6,28.8,206.9,28.2,206.4,27.4z"/>
	<path class="st0" d="M218.2,20.8c2.3-2.3,6.9-7.8,5.7-9c-0.1-0.1-0.3-0.2-0.6-0.2c-1.6,0-5.5,3-8.4,5.9c-1.4,1.4-2.4,2.8-3.1,4.1   c0.7,0.8,1.3,1.8,1.7,2.7C214.8,23.6,216.6,22.4,218.2,20.8z"/>
</g>
</svg>